<svg width="48" height="48" viewBox="0 0 48 48" fill="none" xmlns="http://www.w3.org/2000/svg">
<path d="M34 38.0004H40V10.0004H34V6.00044H42C43.1046 6.00044 44 6.89586 44 8.00044V40.0004C44 41.105 43.1046 42.0004 42 42.0004H34V38.0004ZM5.71716 5.75512L30.8586 2.1635C31.4054 2.0854 31.9118 2.4653 31.99 3.01202C31.9966 3.05886 32 3.10612 32 3.15344V44.8474C32 45.3998 31.5522 45.8474 31 45.8474C30.9526 45.8474 30.9054 45.844 30.8586 45.8374L5.71716 42.2458C4.73186 42.105 4 41.2612 4 40.2658V7.73502C4 6.73972 4.73186 5.89588 5.71716 5.75512ZM8 9.46962V38.5312L28 41.3884V6.61248L8 9.46962ZM22 16.0004H26V32.0004H22L18 28.0004L14 32.0004H10V16.0004H14L14.0217 26.0004L18 22.0004L22 25.9784V16.0004Z" fill="#2CA3FA"/>
</svg>
