<svg width="48" height="48" viewBox="0 0 48 48" fill="none" xmlns="http://www.w3.org/2000/svg">
<path d="M10 8H30V16H38V40H10V8ZM7.997 4C6.89498 4 6 4.8881 6 5.9836V42.0164C6 43.0894 6.88952 44 7.9868 44H40.0132C41.1102 44 42 43.0978 42 41.985L41.9994 14L32 4H7.997ZM20.9998 15C20.9998 18.155 20.0884 21.8746 18.5499 25.3068C17.0057 28.7514 14.9229 31.7004 12.7505 33.4382L15.1093 36.6642C20.9642 32.7608 27.4466 30.0842 33.717 30.98L34.6324 27.1026C29.287 25.3208 24.9998 19.9799 24.9998 15H20.9998ZM22.1998 26.9432C22.7346 25.7504 23.2084 24.5126 23.6074 23.257C24.5506 24.7062 25.7106 26.0364 27.0202 27.1906C25.0566 27.5422 23.133 28.1192 21.2704 28.8552C21.5998 28.2286 21.9102 27.5896 22.1998 26.9432Z" fill="#FF3737"/>
</svg>
