<svg
                  xmlns="http://www.w3.org/2000/svg"
                  width="20"
                  height="20"
                  viewBox="0 0 20 20"
                  fill="none"
                >
                  <path
                    d="M6.64587 14.7917H13.3542V13.5417H6.64587V14.7917ZM6.64587 11.25H13.3542V10H6.64587V11.25ZM4.58337 18.3333C4.25004 18.3333 3.95837 18.2083 3.70837 17.9583C3.45837 17.7083 3.33337 17.4167 3.33337 17.0833V2.91666C3.33337 2.58333 3.45837 2.29166 3.70837 2.04166C3.95837 1.79166 4.25004 1.66666 4.58337 1.66666H12.1042L16.6667 6.22916V17.0833C16.6667 17.4167 16.5417 17.7083 16.2917 17.9583C16.0417 18.2083 15.75 18.3333 15.4167 18.3333H4.58337ZM11.4792 6.79166H15.4167L11.4792 2.91666V6.79166Z"
                    fill="#393E46"
                  />
                </svg>