<svg width="24" height="24" viewBox="0 0 24 24" fill="none" xmlns="http://www.w3.org/2000/svg">
<path d="M18.25 14V10.75H15V9.25001H18.25V6.00001H19.75V9.25001H23V10.75H19.75V14H18.25ZM9 11.975C7.9 11.975 7 11.625 6.3 10.925C5.6 10.225 5.25 9.32501 5.25 8.22501C5.25 7.12501 5.6 6.22501 6.3 5.52501C7 4.82501 7.9 4.47501 9 4.47501C10.1 4.47501 11 4.82501 11.7 5.52501C12.4 6.22501 12.75 7.12501 12.75 8.22501C12.75 9.32501 12.4 10.225 11.7 10.925C11 11.625 10.1 11.975 9 11.975ZM1 20V17.65C1 17.0667 1.14583 16.5375 1.4375 16.0625C1.72917 15.5875 2.15 15.2333 2.7 15C3.95 14.45 5.06115 14.0625 6.03345 13.8375C7.00577 13.6125 7.99327 13.5 8.99595 13.5C9.99865 13.5 10.9833 13.6125 11.95 13.8375C12.9167 14.0625 14.025 14.45 15.275 15C15.825 15.25 16.25 15.6083 16.55 16.075C16.85 16.5417 17 17.0667 17 17.65V20H1ZM2.5 18.5H15.5V17.65C15.5 17.3833 15.425 17.1292 15.275 16.8875C15.125 16.6458 14.925 16.4667 14.675 16.35C13.4917 15.8 12.4917 15.4375 11.675 15.2625C10.8583 15.0875 9.96667 15 9 15C8.03333 15 7.1375 15.0875 6.3125 15.2625C5.4875 15.4375 4.48333 15.8 3.3 16.35C3.05 16.4667 2.85417 16.6458 2.7125 16.8875C2.57083 17.1292 2.5 17.3833 2.5 17.65V18.5ZM9 10.475C9.65 10.475 10.1875 10.2625 10.6125 9.83751C11.0375 9.41251 11.25 8.87501 11.25 8.22501C11.25 7.57501 11.0375 7.03751 10.6125 6.61251C10.1875 6.18751 9.65 5.97501 9 5.97501C8.35 5.97501 7.8125 6.18751 7.3875 6.61251C6.9625 7.03751 6.75 7.57501 6.75 8.22501C6.75 8.87501 6.9625 9.41251 7.3875 9.83751C7.8125 10.2625 8.35 10.475 9 10.475Z" fill="black"/>
</svg>
