<svg xmlns="http://www.w3.org/2000/svg" width="24" height="24" viewBox="0 0 24 24" fill="none">
  <path d="M0.950012 20V17.65C0.950012 17.0667 1.10001 16.5375 1.40001 16.0625C1.70001 15.5875 2.11668 15.2333 2.65001 15C3.86668 14.4667 4.96251 14.0833 5.93751 13.85C6.91251 13.6167 7.91668 13.5 8.95001 13.5C9.98335 13.5 10.9833 13.6167 11.95 13.85C12.9167 14.0833 14.0083 14.4667 15.225 15C15.7583 15.2333 16.1792 15.5875 16.4875 16.0625C16.7958 16.5375 16.95 17.0667 16.95 17.65V20H0.950012ZM18.45 20V17.65C18.45 16.6 18.1833 15.7375 17.65 15.0625C17.1167 14.3875 16.4167 13.8417 15.55 13.425C16.7 13.5583 17.7833 13.7542 18.8 14.0125C19.8167 14.2708 20.6417 14.5667 21.275 14.9C21.825 15.2167 22.2583 15.6083 22.575 16.075C22.8917 16.5417 23.05 17.0667 23.05 17.65V20H18.45ZM8.95001 11.975C7.85001 11.975 6.95001 11.625 6.25001 10.925C5.55001 10.225 5.20001 9.32501 5.20001 8.22501C5.20001 7.12501 5.55001 6.22501 6.25001 5.52501C6.95001 4.82501 7.85001 4.47501 8.95001 4.47501C10.05 4.47501 10.95 4.82501 11.65 5.52501C12.35 6.22501 12.7 7.12501 12.7 8.22501C12.7 9.32501 12.35 10.225 11.65 10.925C10.95 11.625 10.05 11.975 8.95001 11.975ZM17.95 8.22501C17.95 9.32501 17.6 10.225 16.9 10.925C16.2 11.625 15.3 11.975 14.2 11.975C14.0167 11.975 13.8125 11.9625 13.5875 11.9375C13.3625 11.9125 13.1583 11.8667 12.975 11.8C13.375 11.3833 13.6792 10.8708 13.8875 10.2625C14.0958 9.65417 14.2 8.97501 14.2 8.22501C14.2 7.47501 14.0958 6.81251 13.8875 6.23751C13.6792 5.66251 13.375 5.13334 12.975 4.65001C13.1583 4.60001 13.3625 4.55834 13.5875 4.52501C13.8125 4.49167 14.0167 4.47501 14.2 4.47501C15.3 4.47501 16.2 4.82501 16.9 5.52501C17.6 6.22501 17.95 7.12501 17.95 8.22501ZM2.45001 18.5H15.45V17.65C15.45 17.3833 15.3708 17.125 15.2125 16.875C15.0542 16.625 14.8583 16.45 14.625 16.35C13.425 15.8167 12.4167 15.4583 11.6 15.275C10.7833 15.0917 9.90001 15 8.95001 15C8.00001 15 7.11251 15.0917 6.28751 15.275C5.46251 15.4583 4.45001 15.8167 3.25001 16.35C3.01668 16.45 2.82501 16.625 2.67501 16.875C2.52501 17.125 2.45001 17.3833 2.45001 17.65V18.5ZM8.95001 10.475C9.60001 10.475 10.1375 10.2625 10.5625 9.83751C10.9875 9.41251 11.2 8.87501 11.2 8.22501C11.2 7.57501 10.9875 7.03751 10.5625 6.61251C10.1375 6.18751 9.60001 5.97501 8.95001 5.97501C8.30001 5.97501 7.76251 6.18751 7.33751 6.61251C6.91251 7.03751 6.70001 7.57501 6.70001 8.22501C6.70001 8.87501 6.91251 9.41251 7.33751 9.83751C7.76251 10.2625 8.30001 10.475 8.95001 10.475Z" fill="#232931"/>
</svg>